<?xml version="1.0" encoding="utf-8"?>
<!-- Generator: Adobe Illustrator 24.0.1, SVG Export Plug-In . SVG Version: 6.00 Build 0)  -->
<svg version="1.1" id="Layer_1" xmlns="http://www.w3.org/2000/svg" xmlns:xlink="http://www.w3.org/1999/xlink" x="0px" y="0px"
	 viewBox="0 0 612 792" style="enable-background:new 0 0 612 792;" xml:space="preserve">
<style type="text/css">
	.st0{fill:none;stroke:#000000;stroke-miterlimit:10;}
	.st1{stroke:#000000;stroke-miterlimit:10;}
	.st2{fill:none;stroke:#000000;stroke-width:0.5;stroke-miterlimit:10;}
	.st3{fill:#E00B1B;}
	.st4{fill:none;stroke:#000000;stroke-width:0.25;stroke-miterlimit:10;}
	.st5{fill:#0D591B;}
	.st6{fill:#20872D;stroke:#20872D;stroke-width:7;stroke-miterlimit:10;}
</style>
<g>
	<path class="st0" d="M192.47,438.79"/>
	<g>
		<path class="st1" d="M293.85,340.01c-3.91,0.43-7.89,0.68-11.93,0.68c-55.72,0-101-45.04-101.38-100.69
			c3.91-0.43,7.89-0.68,11.93-0.68C248.19,239.32,293.47,284.36,293.85,340.01z"/>
		<path class="st1" d="M180.54,240c-0.37,51.62-39.32,94.11-89.45,100.01C91.47,288.39,130.41,245.91,180.54,240z"/>
		<path class="st0" d="M293.85,340.01v0.68c0,55.97-45.41,101.38-101.38,101.38c-55.97,0-101.38-45.41-101.38-101.38v-0.68
			c0.37-51.62,39.32-94.11,89.45-100.01c3.91-0.43,7.89-0.68,11.93-0.68C248.19,239.32,293.47,284.36,293.85,340.01z"/>
		<g>
			<g>
				<path d="M125.82,467.26c-0.17,0.77-1.34,0.73-2.55-0.04c-3.12-1.95-6.17-4.05-9.15-6.28c-2.49-1.88-3.32-3.36-2.9-4.84
					c1.96-6.85,3.92-13.7,5.87-20.55c0.43-1.49,1.56-1.44,3.87,0.05c2.76,1.78,5.58,3.44,8.44,4.97c1.11,0.6,1.94,1.66,1.77,2.43
					c-0.17,0.77-1.26,0.85-2.38,0.23c-2.6-1.42-5.17-2.95-7.69-4.57c-0.68,2.55-1.35,5.09-2.03,7.64c2.3,1.56,4.65,3.03,7.02,4.42
					c1.15,0.67,2.01,1.79,1.84,2.56c-0.17,0.77-1.3,0.78-2.46,0.09c-2.4-1.42-4.76-2.93-7.08-4.53c-0.9,3.4-1.81,6.79-2.71,10.19
					c2.68,1.95,5.42,3.79,8.21,5.51C125.08,465.3,125.99,466.49,125.82,467.26z"/>
				<path d="M132.33,470.8c1.7-8.81,3.4-17.62,5.1-26.43c0.15-0.79,1.25-1.04,2.39-0.57c1.14,0.47,2,1.54,1.86,2.36
					c-1.56,8.99-3.12,17.98-4.69,26.96c-0.14,0.81-1.35,0.98-2.62,0.35C133.12,472.84,132.18,471.6,132.33,470.8z"/>
				<path d="M175.81,476.68c-0.11,6.39-3.66,9.42-10.51,7.9c-2.14-0.48-4.26-1.01-6.38-1.59c-2.9-0.81-4.02-1.99-3.84-3.8
					c0.86-8.39,1.71-16.77,2.57-25.16c0.19-1.82,1.34-2.32,3.92-1.78c1.66,0.34,3.32,0.65,4.99,0.92c5.71,0.9,8.93,3.64,8.82,8.74
					c-0.08,3.33-1.09,5.48-3.58,6.22C174.63,469.96,175.9,472.33,175.81,476.68z M161.32,464.7c1.24,0.28,2.48,0.55,3.73,0.8
					c3.88,0.76,5.55-0.72,5.68-3.87c0.13-2.95-1.15-4.79-4.75-5.4c-1.3-0.23-2.6-0.47-3.9-0.74
					C161.83,458.56,161.58,461.63,161.32,464.7z M170.77,475.77c0.17-4.35-1.7-6.32-5.61-7.09c-1.37-0.28-2.73-0.57-4.1-0.9
					c-0.34,4.13-0.68,8.25-1.02,12.38c1.47,0.39,2.95,0.75,4.43,1.08C169.27,482.3,170.6,480.18,170.77,475.77z"/>
				<path d="M200.1,468.39c0.46,5.81,0.92,11.63,1.37,17.44c0.08,0.96-1.04,1.84-2.44,1.88c-1.19,0.03-2.06-0.43-2.51-1.14
					c-1.33,1.06-2.84,1.6-5.5,1.52c-5.54-0.19-8.81-2.85-8.81-7.47c0-1.3-0.01-2.6-0.01-3.9c0-4.65,3.04-6.67,8.15-6.68
					c2.4-0.01,3.85,0.41,5.15,1.36c-0.04-0.72-0.08-1.43-0.13-2.15c-0.2-3.3-1.68-4.68-4.59-4.61c-2.91,0.05-3.96,1.18-3.93,3.01
					c0,0.02,0,0.03,0,0.05c0.02,0.89-0.67,1.58-2.23,1.52c-1.23-0.05-2.2-0.85-2.21-1.83c0-0.15,0-0.31,0-0.46
					c0-3.27,2.62-5.42,8.23-5.55C196.25,461.23,199.7,463.56,200.1,468.39z M196,480.09c-0.04-0.7-0.08-1.4-0.12-2.1
					c-0.19-3.1-2.39-4.68-4.88-4.68c-2.82,0-3.91,1.16-3.84,4.4c0.02,0.84,0.04,1.69,0.06,2.53c0.07,3.23,1.27,4.53,4.24,4.6
					C194.08,484.9,196.19,483.19,196,480.09z"/>
				<path d="M208.2,484.09c2.89-7.07,5.46-14.38,7.7-21.88c-2.68,0.6-5.37,1.12-8.07,1.54c-1.2,0.19-2.29-0.45-2.38-1.37
					c-0.09-0.92,0.82-1.84,1.99-2.03c3.67-0.6,7.32-1.37,10.93-2.31c2.18-0.58,3.05,0.67,2.55,2.57c-2.07,7.63-4.48,15.08-7.22,22.3
					c3.24-0.48,6.46-1.07,9.67-1.79c1.29-0.29,2.51,0.24,2.68,1.18c0.17,0.94-0.78,1.99-2.09,2.27c-4.36,0.95-8.74,1.68-13.15,2.19
					C208.44,487.02,207.48,485.88,208.2,484.09z"/>
				<path d="M244.42,456.28c1.73,6.01,3.45,12.02,5.18,18.03c0.29,0.99-0.58,2.33-1.91,2.88c-1.12,0.47-2.05,0.29-2.65-0.3
					c-1.03,1.62-2.36,2.74-4.92,3.63c-5.34,1.84-9.06,0.22-10.03-4.71c-0.28-1.39-0.56-2.77-0.84-4.16
					c-0.98-4.96,1.49-8.24,6.32-10.1c2.27-0.88,3.73-0.96,5.16-0.41c-0.2-0.75-0.39-1.49-0.59-2.24c-0.91-3.43-2.61-4.37-5.33-3.25
					c-2.74,1.1-3.49,2.69-3.06,4.63c0,0.02,0.01,0.03,0.01,0.05c0.21,0.94-0.3,1.93-1.79,2.44c-1.18,0.4-2.27-0.1-2.48-1.14
					c-0.03-0.17-0.07-0.33-0.1-0.5c-0.69-3.49,1.34-6.75,6.59-8.91C239.21,450.05,242.95,451.3,244.42,456.28z M243.12,470.2
					c-0.19-0.73-0.38-1.46-0.58-2.19c-0.86-3.23-3.29-4.12-5.65-3.21c-2.68,1.02-3.47,2.66-2.7,6.09c0.2,0.89,0.4,1.79,0.6,2.68
					c0.76,3.42,2.19,4.36,5.04,3.35C242.35,476.02,243.99,473.43,243.12,470.2z"/>
				<path d="M256.68,470.92c-1.96-6.07-3.91-12.13-5.87-18.2c-1.58-4.98,0.29-9.2,4.88-12.31c4.52-3.11,7.84-2.47,10.02,2.73
					c0.16,0.39,0.32,0.78,0.49,1.17c0.47,1.12-0.11,2.52-1.22,3.32c-1.06,0.76-2.3,0.69-2.74-0.45c-0.1-0.25-0.19-0.49-0.29-0.74
					c-1.27-3.25-2.62-4.26-4.85-2.75c-2.29,1.54-3.02,3.71-1.84,7.13c2.03,5.85,4.07,11.7,6.1,17.56c0.35,0.99-0.44,2.44-1.72,3.12
					C258.36,472.2,256.99,471.91,256.68,470.92z"/>
			</g>
		</g>
		<path class="st2" d="M99.39,442.08C72,416.92,54.83,380.8,54.83,340.7v-0.93c0.51-70.09,53.39-127.78,121.45-135.79
			c5.31-0.59,10.71-0.93,16.19-0.93c75.65,0,137.14,61.15,137.64,136.72v0.93c0,42.3-19.1,80.15-49.14,105.41"/>
		<path class="st3" d="M91.09,319.33c0,0,155.05,39.38,202.75,5.53c-0.05-6.96-0.79-1.32-2.18-7.88
			c-9.68-45.91-50.44-80.39-99.2-80.39c-4.04,0-8.01,0.25-11.93,0.68c-39.04,4.6-71.29,31.38-83.83,67.38"/>
		<circle cx="228.75" cy="363.56" r="10.44"/>
		<circle cx="152.47" cy="363.56" r="10.44"/>
		<g>
			<path d="M216.89,389.89c-2.57-13.04-24.93-20.77-30.13-10.99c-5.19-9.78-27.56-2.05-30.12,10.99
				c-3.36,13.63-21.14,17.38-31.02,10.27c0,15.41,16.6,15.61,26.87,16.59c24.33-1.06,32.01-12.29,34.28-17.41
				c2.26,5.13,9.96,16.35,34.28,17.41c10.28-0.98,26.87-1.18,26.87-16.59C238.02,407.27,220.24,403.52,216.89,389.89z"/>
		</g>
	</g>
	<g>
		<g>
			<path class="st4" d="M346.13,289.88c-27.21-55.11-80.22-63.52-133.08-54.38c-0.14,0-0.27,0-0.48,0.08
				c-1.3,0.23-2.6,0.45-3.9,0.68c-1.16,0.22-2.39,0.52-3.62,0.67c-0.07,0.07-0.2,0.07-0.34,0.07c-0.41,0.14-0.89,0.22-1.3,0.36
				c-0.07-0.07-0.21-0.07-0.21-0.07c-1.09,0.29-2.25,0.52-3.35,0.81c-1.03,0.22-2.05,0.44-3.01,0.73"/>
			<path class="st4" d="M345.42,305.39c-21.38-59.18-75.08-72.73-129.94-68.63c-1.03,0.08-2.05,0.17-3.08,0.25
				c-0.14,0-0.41,0.01-0.62,0.08c-1.1,0.02-2.19,0.17-3.36,0.26c-0.14,0-0.14,0-0.34,0.07c-0.41,0.01-0.75,0.08-1.16,0.09
				c-0.75,0.08-1.51,0.16-2.19,0.31c-0.27,0-0.55,0.01-0.82,0.01c-2.33,0.31-4.72,0.56-7.05,1"/>
			<path class="st4" d="M343.49,317.84c-16.14-61.94-69.85-79.8-125.88-80.21c-1.23,0.02-2.61,0.04-3.91-0.01
				c-0.55,0.01-1.1,0.02-1.65,0.03c-0.62,0.08-1.23,0.02-1.78,0.03c-0.07-0.07-0.14,0-0.27,0l-0.14,0
				c-0.41,0.01-0.75,0.08-1.03,0.08c-1.44-0.05-2.74,0.04-4.11,0.07c-0.27,0-0.55,0.01-0.82,0.01c-1.3,0.09-2.67,0.11-4.04,0.27"/>
			<path class="st4" d="M338.44,336.43c-7.62-64.89-60.34-89.76-117.03-97.29c-1.44-0.18-2.75-0.37-4.05-0.55
				c-0.89-0.05-1.85-0.18-2.68-0.3c-0.27,0-0.41,0.01-0.55,0.01c-0.55-0.13-1.1-0.26-1.65-0.25c-0.21-0.07-0.34-0.06-0.48-0.06
				c0.07,0.07,0.07,0.07-0.07,0.07c-0.96-0.12-1.99-0.17-3.09-0.29c-0.62-0.06-1.24-0.12-1.92-0.24c-1.17-0.05-2.33-0.1-3.5-0.15
				c-0.07-0.07-0.21-0.07-0.21-0.07"/>
			<path class="st4" d="M336.47,341.81c-4.96-65.68-57.5-92.69-114.43-102.34c-1.24-0.25-2.54-0.44-3.85-0.62
				c-0.34-0.06-0.76-0.19-1.24-0.12c-0.82-0.12-1.58-0.32-2.27-0.44c-0.76-0.06-1.44-0.18-2.2-0.24c-0.07-0.07-0.21-0.07-0.41,0.01
				c0,0,0,0-0.07-0.07c-0.69-0.13-1.38-0.25-1.99-0.31l-0.14,0c-0.55-0.13-1.17-0.19-1.65-0.25l-0.14,0
				c-1.17-0.19-2.27-0.31-3.37-0.43"/>
			<path class="st4" d="M335.21,344.78c-3.38-65.91-55.47-94.09-112.28-104.98c-1.24-0.25-2.54-0.44-3.78-0.69
				c-0.76-0.19-1.51-0.25-2.2-0.38c-0.82-0.12-1.58-0.32-2.27-0.44c-0.76-0.06-1.44-0.18-2.2-0.24c-0.07-0.07-0.28-0.13-0.41-0.13
				l-0.07-0.07c-0.62-0.06-1.1-0.12-1.72-0.18c-0.07-0.07-0.14,0-0.27,0l-0.14,0c-0.41-0.13-0.96-0.26-1.45-0.32
				c-0.14,0-0.2,0.07-0.2,0.07l-0.14,0c-0.96-0.26-1.93-0.38-3.03-0.5"/>
			<path class="st4" d="M327.31,360.75c5.1-67.28-45.1-101.87-101.55-119.69c-2.2-0.65-4.41-1.3-6.61-1.95
				c-0.28-0.13-0.62-0.2-0.96-0.26c-0.28-0.13-0.55-0.13-0.83-0.26c-0.07-0.07-0.14,0-0.21-0.07c-1.17-0.32-2.27-0.58-3.44-0.91
				c-0.48-0.2-0.9-0.33-1.38-0.39c-0.21-0.07-0.41-0.13-0.55-0.13c-1.03-0.33-2.14-0.58-3.1-0.84"/>
			<path class="st4" d="M316.92,376.07c14.54-68.53-34.88-110.19-91.16-135.01c-0.9-0.47-1.87-0.86-2.83-1.26
				c-0.28-0.13-0.55-0.27-0.9-0.33c-0.21-0.2-0.42-0.27-0.62-0.33c-0.07-0.07-0.07-0.07-0.07-0.07c-1.24-0.53-2.42-0.99-3.73-1.45
				c-0.62-0.33-1.38-0.66-2.14-0.86c-0.83-0.4-1.73-0.73-2.55-0.99c-0.14-0.13-0.21-0.2-0.35-0.2"/>
		</g>
		<g>
			<path class="st4" d="M341.54,319.57c-13.97-59.86-63.67-80.1-117.22-83.22c-0.13-0.03-0.27-0.06-0.48-0.03
				c-1.32-0.07-2.63-0.15-3.95-0.22c-1.18-0.05-2.45-0.04-3.68-0.17c-0.08,0.05-0.22,0.02-0.35-0.01c-0.43,0.05-0.91,0.01-1.35,0.06
				c-0.05-0.08-0.19-0.11-0.19-0.11c-1.13,0.04-2.31-0.01-3.44,0.03c-1.05-0.02-2.1-0.03-3.09,0.03"/>
			<path class="st4" d="M337.32,334.51c-7.36-62.49-56.58-87.89-110.93-96.38c-1.02-0.15-2.04-0.3-3.06-0.45
				c-0.13-0.03-0.4-0.09-0.62-0.06c-1.07-0.23-2.17-0.33-3.33-0.51c-0.13-0.03-0.13-0.03-0.35-0.01c-0.4-0.09-0.75-0.09-1.15-0.18
				c-0.75-0.09-1.5-0.19-2.2-0.2c-0.27-0.06-0.54-0.12-0.8-0.17c-2.34-0.23-4.73-0.53-7.09-0.63"/>
			<path class="st4" d="M332.61,346.18c-1.63-63.99-49.87-93.6-104.34-106.74c-1.21-0.26-2.55-0.55-3.8-0.89
				c-0.54-0.12-1.07-0.23-1.61-0.35c-0.62-0.06-1.21-0.26-1.74-0.38c-0.05-0.08-0.13-0.03-0.27-0.06l-0.13-0.03
				c-0.4-0.09-0.75-0.09-1.02-0.15c-1.39-0.37-2.68-0.58-4.02-0.87c-0.27-0.06-0.54-0.12-0.8-0.17c-1.29-0.21-2.63-0.5-4-0.66"/>
			<path class="st4" d="M323.46,363.14c7.34-64.92-38.34-101.13-91.84-121.36c-1.36-0.51-2.59-0.98-3.82-1.46
				c-0.86-0.26-1.77-0.59-2.54-0.9c-0.27-0.06-0.4-0.09-0.54-0.12c-0.51-0.25-1.01-0.5-1.55-0.62c-0.19-0.11-0.32-0.14-0.45-0.17
				c0.05,0.08,0.05,0.08-0.08,0.05c-0.91-0.34-1.9-0.62-2.94-0.99c-0.59-0.2-1.18-0.4-1.82-0.67c-1.12-0.31-2.25-0.63-3.37-0.94
				c-0.05-0.08-0.19-0.11-0.19-0.11"/>
			<path class="st4" d="M320.32,367.93c10.11-65.09-34.92-103.33-88.16-125.68c-1.15-0.53-2.38-1.01-3.61-1.48
				c-0.32-0.14-0.69-0.36-1.18-0.4c-0.78-0.31-1.47-0.67-2.11-0.95c-0.72-0.23-1.36-0.51-2.09-0.73c-0.05-0.08-0.19-0.11-0.4-0.09
				c0,0,0,0-0.05-0.08c-0.64-0.28-1.28-0.56-1.87-0.76l-0.13-0.03c-0.51-0.25-1.1-0.45-1.55-0.62l-0.13-0.03
				c-1.1-0.45-2.14-0.81-3.18-1.18"/>
			<path class="st4" d="M318.42,370.54c11.7-64.96-32.62-104.24-85.47-127.76c-1.15-0.53-2.38-1.01-3.53-1.54
				c-0.69-0.36-1.42-0.59-2.06-0.87c-0.78-0.31-1.47-0.67-2.11-0.95c-0.72-0.23-1.36-0.51-2.09-0.73c-0.05-0.08-0.24-0.19-0.37-0.22
				l-0.05-0.08c-0.59-0.2-1.04-0.37-1.63-0.56c-0.05-0.08-0.13-0.03-0.27-0.06l-0.13-0.03c-0.37-0.22-0.88-0.47-1.33-0.64
				c-0.13-0.03-0.22,0.02-0.22,0.02l-0.13-0.03c-0.88-0.47-1.79-0.81-2.83-1.18"/>
			<path class="st4" d="M307.09,384.29c20.27-64.36-20.75-109.45-71.67-139.64c-2-1.13-4-2.27-6-3.4c-0.24-0.19-0.56-0.33-0.88-0.47
				c-0.24-0.19-0.51-0.25-0.75-0.44c-0.05-0.08-0.13-0.03-0.19-0.11c-1.07-0.58-2.08-1.08-3.15-1.66c-0.43-0.3-0.8-0.52-1.25-0.69
				c-0.19-0.11-0.37-0.22-0.51-0.25c-0.93-0.55-1.95-1.05-2.83-1.52"/>
			<path class="st4" d="M293.49,396.85c29.75-63.43-8.91-115.24-58.07-152.2c-0.77-0.66-1.62-1.26-2.47-1.87
				c-0.24-0.19-0.48-0.38-0.8-0.52c-0.16-0.24-0.34-0.36-0.53-0.47c-0.05-0.08-0.05-0.08-0.05-0.08c-1.09-0.8-2.13-1.51-3.3-2.26
				c-0.53-0.47-1.19-0.96-1.89-1.32c-0.72-0.58-1.52-1.1-2.26-1.54c-0.1-0.16-0.16-0.24-0.29-0.27"/>
		</g>
		<g>
			<path class="st4" d="M345.65,299.08c-23.23-56.9-75.51-69.05-128.89-63.68c-0.14-0.01-0.27-0.02-0.48,0.04
				c-1.31,0.13-2.62,0.27-3.94,0.4c-1.18,0.14-2.42,0.35-3.66,0.42c-0.07,0.06-0.21,0.06-0.35,0.05c-0.42,0.11-0.9,0.16-1.32,0.27
				c-0.06-0.07-0.2-0.08-0.2-0.08c-1.11,0.21-2.29,0.35-3.4,0.57c-1.04,0.15-2.08,0.3-3.05,0.52"/>
			<path class="st4" d="M343.83,314.5c-17.13-60.55-69.73-77.87-124.75-77.67c-1.03,0.01-2.06,0.02-3.09,0.04
				c-0.14-0.01-0.41-0.02-0.62,0.03c-1.1-0.06-2.2,0.02-3.37,0.02c-0.14-0.01-0.14-0.01-0.35,0.05c-0.41-0.02-0.76,0.03-1.17,0
				c-0.76,0.03-1.51,0.05-2.21,0.15c-0.27-0.02-0.55-0.03-0.82-0.05c-2.34,0.15-4.75,0.22-7.1,0.5"/>
			<path class="st4" d="M341.03,326.77c-11.71-62.93-64.01-84.56-119.87-88.94c-1.23-0.07-2.6-0.14-3.9-0.28
				c-0.55-0.03-1.1-0.06-1.64-0.09c-0.62,0.03-1.23-0.07-1.78-0.1c-0.06-0.07-0.14-0.01-0.27-0.02l-0.14-0.01
				c-0.41-0.02-0.76,0.03-1.03,0.01c-1.43-0.15-2.74-0.15-4.11-0.23c-0.27-0.02-0.55-0.03-0.82-0.05c-1.3,0-2.67-0.08-4.05-0.02"/>
			<path class="st4" d="M334.67,344.97c-3-65.26-53.82-93.81-109.83-105.35c-1.43-0.28-2.72-0.56-4.01-0.84
				c-0.89-0.12-1.84-0.31-2.65-0.49c-0.27-0.02-0.41-0.02-0.55-0.03c-0.54-0.17-1.08-0.33-1.63-0.36c-0.2-0.08-0.34-0.09-0.48-0.09
				c0.06,0.07,0.06,0.07-0.07,0.06c-0.95-0.19-1.97-0.31-3.06-0.51c-0.61-0.1-1.22-0.2-1.9-0.38c-1.16-0.13-2.32-0.27-3.48-0.4
				c-0.06-0.07-0.2-0.08-0.2-0.08"/>
			<path class="st4" d="M332.32,350.19c-0.28-65.87-50.78-96.53-106.89-110.2c-1.22-0.34-2.51-0.62-3.8-0.9
				c-0.34-0.09-0.74-0.25-1.22-0.2c-0.81-0.18-1.56-0.43-2.23-0.6c-0.75-0.11-1.43-0.28-2.18-0.39c-0.06-0.07-0.2-0.08-0.41-0.02
				c0,0,0,0-0.06-0.07c-0.68-0.17-1.35-0.35-1.97-0.45l-0.14-0.01c-0.54-0.17-1.15-0.27-1.63-0.36l-0.14-0.01
				c-1.15-0.27-2.24-0.47-3.33-0.66"/>
			<path class="st4" d="M330.86,353.06c1.3-65.99-48.65-97.79-104.55-112.68c-1.22-0.34-2.51-0.62-3.72-0.96
				c-0.74-0.25-1.49-0.36-2.17-0.53c-0.81-0.18-1.56-0.43-2.23-0.6c-0.75-0.11-1.43-0.28-2.18-0.39c-0.06-0.07-0.27-0.15-0.4-0.16
				l-0.06-0.07c-0.61-0.1-1.09-0.2-1.7-0.3c-0.06-0.07-0.14-0.01-0.27-0.02l-0.14-0.01c-0.4-0.16-0.94-0.33-1.42-0.42
				c-0.14-0.01-0.21,0.06-0.21,0.06l-0.14-0.01c-0.94-0.33-1.89-0.52-2.98-0.71"/>
			<path class="st4" d="M321.84,368.43c9.86-66.75-37.76-104.81-92.8-126.59c-2.15-0.81-4.31-1.61-6.46-2.42
				c-0.27-0.15-0.6-0.24-0.94-0.33c-0.27-0.15-0.54-0.17-0.81-0.32c-0.06-0.07-0.14-0.01-0.2-0.08c-1.14-0.41-2.23-0.74-3.37-1.15
				c-0.47-0.23-0.87-0.39-1.35-0.49c-0.2-0.08-0.4-0.16-0.54-0.17c-1.01-0.4-2.09-0.73-3.03-1.06"/>
			<path class="st4" d="M310.4,382.98c19.37-67.33-26.97-112.39-81.36-141.13c-0.86-0.53-1.8-0.99-2.74-1.46
				c-0.27-0.15-0.53-0.3-0.87-0.39c-0.19-0.22-0.4-0.3-0.6-0.38c-0.06-0.07-0.06-0.07-0.06-0.07c-1.2-0.62-2.34-1.16-3.61-1.71
				c-0.6-0.38-1.33-0.76-2.07-1.01c-0.8-0.46-1.67-0.85-2.48-1.17c-0.13-0.14-0.19-0.22-0.33-0.22"/>
		</g>
		<g>
			<path class="st4" d="M345.13,303.59c-21.19-57.69-73-71.7-126.54-68.23c-0.14-0.01-0.27-0.02-0.48,0.02
				c-1.32,0.09-2.63,0.17-3.95,0.26c-1.18,0.1-2.43,0.26-3.67,0.29c-0.07,0.06-0.21,0.05-0.35,0.04c-0.42,0.1-0.91,0.12-1.33,0.22
				c-0.06-0.07-0.2-0.09-0.2-0.09c-1.12,0.17-2.3,0.27-3.41,0.45c-1.04,0.11-2.09,0.22-3.07,0.41"/>
			<path class="st4" d="M342.77,318.94c-14.96-61.12-66.92-80.3-121.9-82.06c-1.03-0.02-2.06-0.05-3.09-0.07
				c-0.14-0.01-0.41-0.04-0.62,0.01c-1.09-0.1-2.2-0.06-3.36-0.1c-0.14-0.01-0.14-0.01-0.35,0.04c-0.41-0.04-0.76,0-1.17-0.04
				c-0.76,0-1.51,0-2.21,0.07c-0.27-0.02-0.55-0.05-0.82-0.07c-2.35,0.06-4.76,0.05-7.11,0.25"/>
			<path class="st4" d="M339.53,331.1c-9.46-63.31-60.96-86.78-116.63-93.15c-1.23-0.11-2.59-0.24-3.89-0.42
				c-0.55-0.05-1.09-0.1-1.64-0.15c-0.62,0.01-1.23-0.11-1.78-0.16c-0.06-0.07-0.14-0.01-0.27-0.02l-0.14-0.01
				c-0.41-0.04-0.76,0-1.03-0.02c-1.43-0.2-2.73-0.25-4.1-0.37c-0.27-0.02-0.55-0.05-0.82-0.07c-1.3-0.05-2.67-0.17-4.05-0.16"/>
			<path class="st4" d="M332.53,349.06c-0.67-65.33-50.44-95.67-106.01-109.19c-1.42-0.34-2.69-0.66-3.97-0.98
				c-0.88-0.15-1.83-0.37-2.63-0.58c-0.27-0.02-0.41-0.04-0.55-0.05c-0.53-0.19-1.07-0.37-1.61-0.42c-0.2-0.09-0.34-0.1-0.47-0.11
				c0.06,0.07,0.06,0.07-0.07,0.06c-0.94-0.22-1.96-0.38-3.04-0.62c-0.61-0.12-1.22-0.25-1.89-0.45c-1.15-0.17-2.31-0.35-3.46-0.52
				c-0.06-0.07-0.2-0.09-0.2-0.09"/>
			<path class="st4" d="M329.99,354.2c2.06-65.84-47.31-98.28-102.9-113.93c-1.2-0.38-2.48-0.71-3.76-1.03
				c-0.34-0.1-0.73-0.27-1.22-0.25c-0.81-0.21-1.54-0.48-2.21-0.68c-0.74-0.14-1.42-0.34-2.16-0.47c-0.06-0.07-0.2-0.09-0.41-0.04
				c0,0,0,0-0.06-0.07c-0.67-0.2-1.34-0.4-1.95-0.52l-0.14-0.01c-0.53-0.19-1.14-0.31-1.61-0.42l-0.14-0.01
				c-1.14-0.31-2.22-0.55-3.3-0.78"/>
			<path class="st4" d="M328.43,357.01c3.65-65.9-45.14-99.46-100.48-116.33c-1.2-0.38-2.48-0.71-3.69-1.09
				c-0.73-0.27-1.48-0.41-2.15-0.61c-0.81-0.21-1.54-0.48-2.21-0.68c-0.74-0.14-1.42-0.34-2.16-0.47c-0.06-0.07-0.26-0.16-0.4-0.17
				l-0.06-0.07c-0.61-0.12-1.08-0.24-1.69-0.36c-0.06-0.07-0.14-0.01-0.27-0.02l-0.14-0.01c-0.4-0.17-0.93-0.36-1.4-0.47
				c-0.14-0.01-0.21,0.05-0.21,0.05l-0.14-0.01c-0.93-0.36-1.87-0.58-2.95-0.82"/>
			<path class="st4" d="M318.87,372.05c12.23-66.36-34-106.09-88.23-129.81c-2.12-0.88-4.25-1.76-6.37-2.64
				c-0.26-0.16-0.6-0.26-0.93-0.36c-0.26-0.16-0.53-0.19-0.79-0.35c-0.06-0.07-0.14-0.01-0.2-0.09c-1.13-0.45-2.2-0.82-3.33-1.27
				c-0.46-0.25-0.86-0.42-1.33-0.53c-0.2-0.09-0.4-0.17-0.53-0.19c-0.99-0.43-2.06-0.81-2.99-1.17"/>
			<path class="st4" d="M306.91,386.18c21.75-66.59-22.96-113.28-76.28-143.94c-0.84-0.56-1.76-1.06-2.68-1.55
				c-0.26-0.16-0.52-0.32-0.86-0.42c-0.19-0.22-0.38-0.31-0.58-0.4c-0.06-0.07-0.06-0.07-0.06-0.07c-1.18-0.66-2.3-1.24-3.55-1.84
				c-0.58-0.4-1.3-0.81-2.04-1.08c-0.78-0.48-1.64-0.91-2.43-1.25c-0.12-0.15-0.19-0.22-0.32-0.24"/>
		</g>
		<g>
			<path class="st4" d="M338.05,331.21c-9.71-60.69-57.86-84.39-111.06-91.28c-0.13-0.04-0.26-0.08-0.48-0.07
				c-1.31-0.17-2.62-0.34-3.92-0.5c-1.18-0.13-2.44-0.21-3.66-0.43c-0.09,0.05-0.22,0.01-0.35-0.03c-0.43,0.02-0.91-0.05-1.35-0.04
				c-0.05-0.09-0.18-0.12-0.18-0.12c-1.13-0.04-2.31-0.17-3.44-0.22c-1.04-0.09-2.09-0.18-3.09-0.19"/>
			<path class="st4" d="M332.79,345.82c-2.93-62.86-50.24-91.67-103.86-103.97c-1.01-0.22-2.01-0.44-3.02-0.67
				c-0.13-0.04-0.39-0.12-0.61-0.11c-1.05-0.31-2.14-0.48-3.28-0.74c-0.13-0.04-0.13-0.04-0.35-0.03c-0.39-0.12-0.74-0.15-1.14-0.26
				c-0.74-0.15-1.49-0.29-2.18-0.35c-0.26-0.08-0.53-0.15-0.79-0.23c-2.31-0.39-4.68-0.87-7.03-1.12"/>
			<path class="st4" d="M327.27,357.14c2.88-63.94-43.14-96.88-96.55-113.83c-1.18-0.35-2.5-0.73-3.73-1.16
				c-0.53-0.15-1.05-0.31-1.58-0.46c-0.61-0.11-1.18-0.35-1.71-0.5c-0.05-0.09-0.13-0.04-0.26-0.08l-0.13-0.04
				c-0.39-0.12-0.74-0.15-1.01-0.22c-1.36-0.47-2.63-0.77-3.95-1.15c-0.26-0.08-0.53-0.15-0.79-0.23c-1.27-0.3-2.59-0.68-3.94-0.94"
				/>
			<path class="st4" d="M316.95,373.41c11.9-64.24-31.11-103.58-83.05-127.53c-1.32-0.6-2.52-1.16-3.71-1.73
				c-0.84-0.32-1.72-0.72-2.47-1.08c-0.26-0.08-0.39-0.12-0.53-0.15c-0.49-0.29-0.98-0.57-1.5-0.72c-0.18-0.12-0.31-0.16-0.44-0.2
				c0.05,0.09,0.05,0.09-0.09,0.05c-0.88-0.4-1.85-0.75-2.87-1.19c-0.57-0.24-1.15-0.48-1.77-0.8c-1.1-0.39-2.2-0.78-3.3-1.18
				c-0.05-0.09-0.18-0.12-0.18-0.12"/>
			<path class="st4" d="M313.48,377.97c14.68-64.21-27.54-105.54-79.08-131.59c-1.11-0.61-2.3-1.17-3.49-1.73
				c-0.31-0.16-0.67-0.41-1.15-0.48c-0.75-0.36-1.42-0.77-2.04-1.09c-0.7-0.28-1.32-0.6-2.03-0.88c-0.05-0.09-0.18-0.12-0.39-0.12
				c0,0,0,0-0.05-0.09c-0.62-0.32-1.24-0.65-1.81-0.89l-0.13-0.04c-0.49-0.29-1.06-0.52-1.5-0.72l-0.13-0.04
				c-1.06-0.52-2.08-0.96-3.09-1.4"/>
			<path class="st4" d="M311.4,380.43c16.25-63.97-25.18-106.28-76.24-133.47c-1.11-0.61-2.3-1.17-3.41-1.78
				c-0.67-0.41-1.37-0.69-1.99-1.01c-0.75-0.36-1.42-0.77-2.04-1.09c-0.7-0.28-1.32-0.6-2.03-0.88c-0.05-0.09-0.22-0.21-0.36-0.25
				l-0.05-0.09c-0.57-0.24-1.01-0.44-1.59-0.68c-0.05-0.09-0.13-0.04-0.26-0.08l-0.13-0.04c-0.36-0.25-0.84-0.53-1.29-0.73
				c-0.13-0.04-0.22,0.01-0.22,0.01l-0.13-0.04c-0.84-0.53-1.73-0.93-2.74-1.37"/>
			<path class="st4" d="M299.13,393.35c24.76-62.77-12.98-110.65-61.64-144.35c-1.91-1.27-3.83-2.55-5.74-3.82
				c-0.22-0.21-0.53-0.37-0.84-0.53c-0.22-0.21-0.49-0.29-0.71-0.49c-0.05-0.09-0.13-0.04-0.18-0.12c-1.02-0.66-2-1.23-3.02-1.88
				c-0.4-0.33-0.76-0.58-1.2-0.78c-0.18-0.12-0.36-0.25-0.49-0.29c-0.89-0.62-1.87-1.19-2.71-1.72"/>
			<path class="st4" d="M284.68,404.92c34.15-61.17-0.76-115.58-47.19-155.92c-0.72-0.71-1.53-1.37-2.33-2.04
				c-0.22-0.21-0.45-0.42-0.76-0.58c-0.14-0.26-0.32-0.38-0.5-0.5c-0.05-0.09-0.05-0.09-0.05-0.09c-1.03-0.87-2.02-1.66-3.13-2.49
				c-0.5-0.5-1.12-1.04-1.79-1.45c-0.67-0.63-1.43-1.2-2.15-1.7c-0.09-0.17-0.14-0.26-0.27-0.29"/>
		</g>
	</g>
</g>
<path class="st5" d="M309.97,353.47c0,0-38.89-1.15-28.68-17.69C291.49,319.23,309.97,353.47,309.97,353.47z"/>
<path class="st6" d="M282.66,357.4c0,0-17.05-33.32,2.34-31.9C304.38,326.92,282.66,357.4,282.66,357.4z"/>
</svg>
