<?xml version="1.0" encoding="utf-8"?>
<!-- Generator: Adobe Illustrator 24.0.1, SVG Export Plug-In . SVG Version: 6.00 Build 0)  -->
<svg version="1.1" id="Layer_1" xmlns="http://www.w3.org/2000/svg" xmlns:xlink="http://www.w3.org/1999/xlink" x="0px" y="0px"
	 viewBox="0 0 512 512" style="enable-background:new 0 0 512 512;" xml:space="preserve">
<style type="text/css">
	.st0{fill:#FFF780;}
	.st1{fill:#D6C66A;}
	.st2{fill:#F3E981;}
	.st3{fill:#CEBF66;}
	.st4{fill:#C8B963;}
	.st5{fill:#EDE37F;}
	.st6{fill:#BCAF5E;}
</style>
<path class="st0" d="M419.3,370H92.8c-5,0-9.6-2.5-12.5-6.6c-43.1-63.2-46.4-184.7-46.6-202.7c0-0.7,0-1.4,0-2.1
	c0-8.3,6.7-15.1,15.1-15.1h0c8.3,0,15,6.7,15.1,15c0,0.1,0,1,0,2.6c1.3,42.9,36.6,77.4,79.9,77.4c44.1,0,79.9-35.8,79.9-79.9
	c0-8.3,6.8-15.1,15.1-15.1h34.6c8.3,0,15.1,6.8,15.1,15.1c0,44.1,35.8,79.9,79.9,79.9c43.3,0,78.6-34.6,79.9-77.5c0-1.5,0-2.4,0-2.4
	c0-8.3,6.8-15,15.1-15h0c8.3,0,15.1,6.8,15.1,15.1c0,0.7,0,1.4,0,2.1c-0.3,18-3.6,139.6-46.6,202.7C428.9,367.5,424.2,370,419.3,370
	z"/>
<path class="st1" d="M463.3,143.4C463.3,143.4,463.3,143.4,463.3,143.4c-8.3,0-15.1,6.7-15.1,15c0,0.1,0,0.9,0,2.5
	c-1.3,43-36.6,77.5-79.9,77.5c-44.1,0-79.9-35.8-79.9-79.9c0-8.3-6.8-15.1-15.1-15.1H256V370h163.2c5,0,9.6-2.5,12.5-6.6
	c43.1-63.2,46.4-184.7,46.6-202.7c0-0.7,0-1.4,0-2.1C478.4,150.2,471.6,143.5,463.3,143.4z"/>
<path class="st2" d="M256,92c-26.9,0-48.7,21.9-48.7,48.7s21.9,48.7,48.7,48.7s48.7-21.9,48.7-48.7S282.9,92,256,92z"/>
<path class="st3" d="M256,92v97.4c26.9,0,48.7-21.9,48.7-48.7S282.9,92,256,92z"/>
<path class="st1" d="M48.7,129.6C21.9,129.6,0,151.5,0,178.3S21.9,227,48.7,227s48.7-21.9,48.7-48.7S75.6,129.6,48.7,129.6z"/>
<path class="st4" d="M463.3,129.6c-26.9,0-48.7,21.9-48.7,48.7c0,26.9,21.9,48.7,48.7,48.7s48.7-21.9,48.7-48.7
	C512,151.5,490.1,129.6,463.3,129.6z"/>
<path class="st5" d="M419.3,419.4H92.8c-8.3,0-15.1-6.8-15.1-15.1v-45h356.7v45C434.3,412.7,427.6,419.4,419.3,419.4z"/>
<path class="st6" d="M256,419.4h163.2c8.3,0,15.1-6.8,15.1-15.1v-45H256V419.4z"/>
</svg>
