<?xml version="1.0" encoding="utf-8"?>
<!-- Generator: Adobe Illustrator 24.0.1, SVG Export Plug-In . SVG Version: 6.00 Build 0)  -->
<svg version="1.1" id="Layer_1" xmlns="http://www.w3.org/2000/svg" xmlns:xlink="http://www.w3.org/1999/xlink" x="0px" y="0px"
	 viewBox="0 0 512 512" style="enable-background:new 0 0 512 512;" xml:space="preserve">
<style type="text/css">
	.st0{fill:#FF4949;}
	.st1{fill:#E50148;}
	.st2{fill:#BF065B;}
	.st3{fill:#EFEEEE;}
	.st4{fill:#C2C2C2;}
	.st5{fill:#E9E8E7;}
	.st6{fill:#B0B0B0;}
</style>
<g>
	<g>
		<path class="st0" d="M149.8,11.6H256v193.7H149.8V11.6z"/>
		<path class="st1" d="M256,11.6h107v193.7H256V11.6z"/>
	</g>
	<path class="st1" d="M217.9,11.6v193.7H256l10.4-115.1L256,11.6L217.9,11.6z"/>
	<path class="st2" d="M256,11.6h39v193.7h-39V11.6z"/>
	<path class="st3" d="M134.5,0c-8.3,0-15,6.7-15,15s6.7,15,15,15H256l10.4-15L256,0H134.5z"/>
	<path class="st4" d="M392.5,15c0-8.3-6.7-15-15-15H256v30h121.5C385.8,30,392.5,23.3,392.5,15z"/>
	<g>
		<path class="st3" d="M256,133.1c-3.9,0-7.6,1.5-10.3,4.3l-46.9,46.9h-66.4c-8.1,0-14.6,6.5-14.6,14.6v66.4l-46.9,46.9
			c-5.7,5.7-5.7,14.9,0,20.6l46.9,46.9v66.4c0,8.1,6.5,14.6,14.6,14.6h66.4l46.9,46.9c2.7,2.7,6.5,4.3,10.3,4.3h0l28.2-189.4
			L256,133.1C256,133.1,256,133.1,256,133.1L256,133.1z"/>
		<path class="st4" d="M441.2,312.2l-46.9-46.9v-66.4c0-8.1-6.5-14.6-14.6-14.6h-66.4l-46.9-46.9c-2.7-2.7-6.4-4.3-10.3-4.3V512
			c3.9,0,7.6-1.5,10.3-4.3l46.9-46.9h66.4c8.1,0,14.6-6.5,14.6-14.6v-66.4l46.9-46.9C446.9,327.2,446.9,317.9,441.2,312.2
			L441.2,312.2z"/>
	</g>
	<g>
		<path class="st5" d="M245.7,219.8l-22.8,22.8h-32.2c-8.1,0-14.6,6.5-14.6,14.6v32.2l-22.8,22.8c-2.7,2.7-4.3,6.5-4.3,10.3
			s1.5,7.6,4.3,10.3l22.8,22.8v32.2c0,8.1,6.5,14.6,14.6,14.6h32.2l22.8,22.8c2.9,2.9,6.6,4.3,10.3,4.3h0l19.4-109.2L256,215.6
			C252.3,215.6,248.5,217,245.7,219.8z"/>
	</g>
	<path class="st6" d="M358.7,312.2l-22.8-22.8v-32.2c0-8.1-6.5-14.6-14.6-14.6h-32.2l-22.8-22.8c-2.9-2.9-6.6-4.3-10.3-4.3v214
		c3.7,0,7.5-1.4,10.3-4.3l22.8-22.8h32.2c8.1,0,14.6-6.5,14.6-14.6v-32.2l22.8-22.8C364.4,327.2,364.4,317.9,358.7,312.2
		L358.7,312.2z"/>
</g>
</svg>
